<svg width="120" height="60" viewBox="0 0 120 60" fill="none" xmlns="http://www.w3.org/2000/svg">
<path d="M17.84 10.725H23.874V38.655C20.779 39.243 18.506 39.478 16.037 39.478C8.67 39.478 4.83 36.148 4.83 29.761C4.83 23.609 8.905 19.613 15.213 19.613C16.193 19.613 16.937 19.691 17.838 19.926L17.84 10.725ZM17.84 24.785C17.135 24.55 16.547 24.472 15.803 24.472C12.747 24.472 10.983 26.352 10.983 29.644C10.983 32.857 12.668 34.62 15.763 34.62C16.4582 34.6187 17.1524 34.5666 17.84 34.464V24.785ZM33.474 20.045V34.033C33.474 38.853 33.121 41.163 32.074 43.163C31.094 45.083 29.801 46.298 27.137 47.63L21.534 44.965C24.199 43.711 25.491 42.615 26.314 40.929C27.176 39.205 27.451 37.207 27.451 31.956V20.056L33.474 20.045ZM27.44 10.76H33.474V16.96H27.44V10.76ZM37.118 21.416C39.783 20.162 42.318 19.614 45.112 19.614C48.207 19.614 50.245 20.437 51.146 22.044C51.646 22.944 51.812 24.121 51.812 26.629V38.9C49.108 39.292 45.699 39.566 43.192 39.566C38.138 39.566 35.865 37.802 35.865 33.884C35.865 29.652 38.882 27.684 46.288 27.066V25.734C46.288 24.637 45.738 24.234 44.211 24.234C41.978 24.234 39.471 24.861 37.119 26.076V21.413L37.118 21.416ZM46.561 31.016C42.564 31.408 41.261 32.036 41.261 33.602C41.261 34.777 42.006 35.326 43.661 35.326C44.561 35.326 45.385 35.248 46.561 35.052V31.016ZM54.761 20.986C58.326 20.046 61.265 19.616 64.243 19.616C67.338 19.616 69.573 20.321 70.905 21.693C72.159 22.986 72.55 24.396 72.55 27.413V39.246H66.516V27.646C66.516 25.334 65.732 24.472 63.576 24.472C62.753 24.472 62.009 24.55 60.794 24.902V39.242H54.75L54.761 20.986ZM74.886 42.536C77.002 43.633 79.118 44.142 81.351 44.142C85.308 44.142 86.993 42.536 86.993 38.696V38.578C85.818 39.165 84.643 39.401 83.075 39.401C77.775 39.401 74.415 35.914 74.415 30.389C74.415 23.531 79.392 19.653 88.207 19.653C90.793 19.653 93.184 19.927 96.083 20.515L94.017 24.868C92.41 24.555 93.887 24.826 92.674 24.708V25.335L92.752 27.881L92.792 31.173C92.832 31.996 92.832 32.819 92.872 33.641V35.287C92.872 40.459 92.442 42.887 91.148 44.887C89.268 47.827 86.015 49.287 81.391 49.287C79.041 49.287 77.003 48.934 74.887 48.111V42.547L74.886 42.536ZM86.886 24.512H86.259C85.084 24.472 83.713 24.786 82.772 25.374C81.322 26.197 80.578 27.686 80.578 29.802C80.578 32.819 82.078 34.542 84.732 34.542C85.555 34.542 86.232 34.385 87.004 34.15V32.073C87.004 31.368 86.964 30.573 86.964 29.761L86.924 26.979L86.884 24.981V24.511L86.886 24.512ZM105.45 19.536C111.484 19.536 115.167 23.336 115.167 29.489C115.167 35.789 111.327 39.755 105.214 39.755C99.18 39.755 95.457 35.955 95.457 29.842C95.457 23.494 99.297 19.537 105.449 19.537L105.45 19.536ZM105.332 34.896C107.644 34.896 109.016 32.976 109.016 29.646C109.016 26.346 107.684 24.396 105.372 24.396C102.972 24.396 101.61 26.316 101.61 29.646C101.61 32.976 102.982 34.896 105.332 34.896Z" fill="#646464"/>
</svg>
