<svg width="52" height="52" viewBox="0 0 52 52" fill="none" xmlns="http://www.w3.org/2000/svg">
<g clip-path="url(#clip0)">
<path d="M49.1298 0H2.87016C2.10894 0 1.37891 0.302391 0.840649 0.840649C0.302391 1.37891 0 2.10894 0 2.87016L0 49.1298C0 49.8911 0.302391 50.6211 0.840649 51.1594C1.37891 51.6976 2.10894 52 2.87016 52H27.7773V31.8906H21.0234V24.0195H27.7773V18.2305C27.7773 11.5141 31.8795 7.85688 37.8727 7.85688C40.7418 7.85688 43.2088 8.07016 43.9258 8.16156V15.1805H39.7922C36.532 15.1805 35.9003 16.7294 35.9003 19.0034V24.0195H43.6942L42.6786 31.8906H35.9003V52H49.1278C49.5049 52.0003 49.8783 51.9262 50.2268 51.7821C50.5753 51.638 50.8919 51.4266 51.1586 51.1601C51.4254 50.8935 51.637 50.577 51.7813 50.2287C51.9257 49.8803 52 49.5069 52 49.1298V2.87016C52 2.10894 51.6976 1.37891 51.1594 0.840649C50.6211 0.302391 49.8911 0 49.1298 0V0Z" fill="#808080"/>
<path d="M35.9023 52V31.8906H42.6816L43.6973 24.0196H35.9023V19.0064C35.9023 16.7324 36.532 15.1836 39.7942 15.1836H43.9258V8.1626C43.2067 8.06713 40.7398 7.85791 37.8727 7.85791C31.8805 7.85791 27.7773 11.5142 27.7773 18.2315V24.0206H21.0234V31.8906H27.7773V52H35.9023Z" fill="#CECFF5"/>
</g>
<defs>
<clipPath id="clip0">
<rect width="52" height="52" rx="26" fill="white"/>
</clipPath>
</defs>
</svg>
