<svg width="130" height="66" viewBox="0 0 130 66" fill="none" xmlns="http://www.w3.org/2000/svg">
<path d="M21.2608 49.096L39.7393 30.3289H26.3031L14.5448 42.2724L21.2608 49.096Z" fill="#646464"/>
<path d="M4.46449 32.037L26.3031 9.86241H39.7393L11.1847 38.8606L4.46449 32.037Z" fill="#646464"/>
<path d="M26.3031 54.2116H39.7393L27.981 42.2724L21.2608 49.096L26.3031 54.2116Z" fill="#3D424B"/>
<path d="M27.9811 42.2724L21.2608 49.096L31.2276 45.5903L27.9811 42.2724Z" fill="#3D424B"/>
<path d="M14.5441 42.27L21.2644 35.4462L27.9852 42.27L21.2644 49.0939L14.5441 42.27Z" fill="#808080"/>
<path d="M39.7393 30.329L27.981 42.2724L39.7393 54.2158H26.3031L14.5406 42.2724L26.3031 30.329H39.7393ZM26.3031 9.86241L4.46449 32.037L11.1847 38.8606L39.7393 9.86241H26.3031Z" fill="url(#paint0_radial)"/>
<path d="M44.005 21.7514H55.7483V24.0834H46.3883V31.1388H54.8383V33.4422H46.3883V42.3687H44.005V21.7514ZM58.5899 21.7514H61.0003V42.3698H58.5899V21.7514ZM69.8187 42.8307C68.0795 42.8307 66.7434 42.3122 65.8103 41.2753C64.909 40.2318 64.4583 38.7823 64.4583 36.927V27.6837H66.8687V36.553C66.8687 37.9463 67.1807 38.973 67.8047 39.633C68.4287 40.293 69.2701 40.623 70.3289 40.623C71.1421 40.623 71.8643 40.4023 72.4956 39.9608C73.1456 39.5193 73.6367 38.9437 73.9689 38.2338C74.3278 37.5225 74.5073 36.7737 74.5073 35.9876V27.6936H76.9167V42.3786H74.62V40.238H74.5062C74.109 40.9677 73.4756 41.5818 72.6061 42.0805C71.7365 42.5792 70.8099 42.8285 69.8262 42.8285L69.8187 42.8307Z" fill="#646464"/>
<path d="M86.1943 42.6008C85.6079 42.6008 85.0597 42.5047 84.5498 42.3126C84.0587 42.1205 83.6427 41.8612 83.3018 41.5349C82.9234 41.1704 82.6399 40.748 82.4514 40.2677C82.2622 39.7881 82.1676 39.2025 82.1676 38.511V29.9013H79.6434V27.6837H82.1676V23.5367H84.578V27.6837H88.0945V29.9013H84.578V37.9071C84.578 38.7138 84.7297 39.3089 85.033 39.6924C85.392 40.1148 85.912 40.326 86.593 40.326C87.1419 40.326 87.6713 40.1628 88.1812 39.8365V42.2268C87.8973 42.361 87.6041 42.4571 87.3015 42.515C87.0177 42.5737 86.6493 42.603 86.1965 42.603L86.1943 42.6008Z" fill="#646464"/>
<path d="M96.4167 42.6008C95.8302 42.6008 95.2821 42.5047 94.7722 42.3126C94.2811 42.1205 93.8651 41.8612 93.5242 41.5349C93.1457 41.1704 92.8623 40.748 92.6738 40.2677C92.4845 39.7881 92.3899 39.2025 92.3899 38.511V29.9013H89.8658V27.6837H92.3899V23.5367H94.8003V27.6837H98.3168V29.9013H94.8003V37.9071C94.8003 38.7138 94.952 39.3089 95.2553 39.6924C95.6143 40.1148 96.1343 40.326 96.8153 40.326C97.3642 40.326 97.8936 40.1628 98.4035 39.8365V42.2268C98.1197 42.361 97.8264 42.4571 97.5238 42.515C97.24 42.5737 96.8717 42.603 96.4188 42.603L96.4167 42.6008Z" fill="#646464"/>
<path d="M107.033 42.8307C105.661 42.8307 104.422 42.4948 103.317 41.8231C102.221 41.1514 101.361 40.2299 100.737 39.0588C100.132 37.8686 99.8292 36.5339 99.8292 35.0548C99.8292 33.6343 100.113 32.329 100.68 31.1388C101.266 29.9486 102.089 28.9982 103.147 28.2876C104.206 27.5763 105.435 27.2206 106.834 27.2206C108.252 27.2206 109.481 27.5506 110.521 28.2106C111.561 28.8442 112.355 29.7271 112.904 30.8594C113.471 31.9924 113.754 33.2882 113.754 34.7468C113.754 35.035 113.725 35.2843 113.668 35.4948H102.238C102.296 36.608 102.561 37.5489 103.033 38.3174C103.505 39.0852 104.101 39.6609 104.82 40.0444C105.557 40.4287 106.322 40.6208 107.117 40.6208C108.97 40.6208 110.397 39.7379 111.399 37.972L113.441 38.9796C112.817 40.1698 111.966 41.1107 110.889 41.8022C109.83 42.493 108.545 42.8384 107.032 42.8384L107.033 42.8307ZM111.202 33.4719C111.164 32.8574 110.995 32.2432 110.693 31.6294C110.39 31.0149 109.907 30.4964 109.247 30.074C108.597 29.6516 107.784 29.4404 106.809 29.4404C105.675 29.4404 104.711 29.8144 103.917 30.5624C103.142 31.2921 102.631 32.2615 102.385 33.4708H111.205L111.202 33.4719ZM116.547 27.6837H118.844V30.0454H118.958C119.241 29.2387 119.79 28.5765 120.602 28.0588C121.415 27.5213 122.266 27.2525 123.154 27.2525C123.816 27.2525 124.383 27.3486 124.855 27.5407V30.1895C124.25 29.8815 123.569 29.7275 122.813 29.7275C122.113 29.7275 121.47 29.9292 120.885 30.3325C120.298 30.7358 119.829 31.2829 119.477 31.9737C119.137 32.6454 118.967 33.3788 118.967 34.1737V42.3797H116.557V27.6947L116.547 27.6837Z" fill="#646464"/>
<defs>
<radialGradient id="paint0_radial" cx="0" cy="0" r="1" gradientUnits="userSpaceOnUse" gradientTransform="translate(5.45548 12.8854) scale(53.4388 54.261)">
<stop stop-color="white" stop-opacity="0.1"/>
<stop offset="1" stop-color="white" stop-opacity="0"/>
</radialGradient>
</defs>
</svg>
