<svg width="52" height="52" viewBox="0 0 52 52" fill="none" xmlns="http://www.w3.org/2000/svg">
<path d="M51.9848 0H0.0152344C0.00682066 0 0 0.00682066 0 0.0152344V51.9848C0 51.9932 0.00682066 52 0.0152344 52H51.9848C51.9932 52 52 51.9932 52 51.9848V0.0152344C52 0.00682066 51.9932 0 51.9848 0Z" fill="#808080"/>
<path d="M12.086 25.8984C13.8125 28.9453 17.0625 30.7734 22.4453 31.2813C21.6328 31.8906 20.7188 33.0078 20.6172 34.3281C19.6016 34.9375 17.6719 35.1406 16.1485 34.6328C14.0157 33.9219 13.2032 29.7578 9.95315 30.3672C9.24222 30.4688 9.34378 30.9766 9.95315 31.3828C10.9688 31.9922 12.086 33.0078 12.5938 34.4297C13.8125 37.5781 16.3516 38.3906 20.4141 37.7813V42.3516C20.4141 43.7734 18.3828 44.1797 18.3828 44.8906C18.3828 45.1953 19.0938 45.1953 19.6016 45.1953C20.6172 45.1953 22.8516 44.2813 22.8516 42.8594C22.8516 41.6406 22.8516 37.5781 22.9532 36.8672C22.9532 35.3438 23.7657 34.8359 23.7657 34.8359C23.7657 34.8359 23.8672 43.1641 23.5625 44.1797C23.1563 45.5 22.5469 45.2969 22.5469 45.9063C22.5469 46.8203 25.1875 46.1094 26.1016 44.1797C26.8125 42.6563 26.5078 34.5313 26.4063 34.6328H27.1172C27.1172 34.6328 27.1172 38.3906 27.2188 40.0156C27.2188 41.7422 27.1172 43.9766 28.1328 45.0938C28.8438 45.8047 31.0782 47.0234 31.0782 45.9063C31.0782 45.2969 29.8594 44.6875 29.8594 42.9609V34.9375C30.875 34.9375 30.6719 37.5781 30.6719 37.5781L30.7735 42.4531C30.7735 42.4531 30.5703 44.2813 32.7032 44.9922C33.5157 45.2969 35.1407 45.2969 35.2422 44.8906C35.3438 44.4844 33.211 43.7734 33.211 42.3516V37.375C33.211 33.7188 32.7032 32.3984 30.9766 31.2813C36.3594 30.7734 39.711 29.4531 41.336 25.8984C42.3516 23.8672 42.5547 21.4297 42.5547 19.6016C42.5547 14.5234 40.1172 12.7969 39.6094 11.8828C40.3203 8.02345 39.5078 6.29688 39.1016 5.78907C37.6797 5.28126 34.2266 7.00782 32.3985 8.22657C29.3516 7.31251 22.8516 7.41407 20.4141 8.4297C15.9453 5.28126 13.6094 5.78907 13.6094 5.78907C13.6094 5.78907 12.086 8.53126 13.2032 12.4922C11.6797 14.3203 10.6641 15.6406 10.5625 19.0938C10.5625 21.8359 10.8672 23.5625 12.086 25.8984Z" fill="#CECFF5"/>
</svg>
