<svg width="120" height="60" viewBox="0 0 120 60" fill="none" xmlns="http://www.w3.org/2000/svg">
<path d="M6.29999 21.475H12V27.105H17.213V21.475H22.913V38.525H17.213V32.825H12V38.525H6.29999V21.475ZM30.407 27.13H25.38V21.476H41.116V27.13H36.096V38.527H30.396V27.13H30.407ZM43.614 21.475H49.557L53.213 27.475L56.865 21.475H62.8V38.525H57.124V30.073L53.204 36.136H53.106L49.2 30.074V38.526H43.624L43.614 21.475ZM65.644 21.475H71.344V32.9H79.359V38.536H65.645L65.644 21.475Z" fill="#646464"/>
<path d="M82.07 12.06H113.707L110.825 44.348L97.87 47.94L84.95 44.353L82.07 12.06Z" fill="#3D424B"/>
<path d="M108.36 42.293L110.823 14.701H97.9V45.195L108.36 42.293Z" fill="#646464"/>
<path d="M92.65 26.678L92.288 22.622H97.9V18.662H87.97L89.038 30.639H97.9V26.679L92.65 26.678ZM89.204 32.62L89.759 38.84L97.872 41.092L97.89 41.087V36.967L97.873 36.972L93.473 35.772L93.191 32.612H91.048L89.204 32.62Z" fill="#EBEBEB"/>
<path d="M106.986 27.74L107.083 26.676H97.877V30.636H102.754L102.294 35.773L97.877 36.965V41.085L105.997 38.835L106.057 38.165L106.986 27.74ZM97.886 22.622H107.453L107.808 18.652H97.886V22.602V22.622Z" fill="white"/>
</svg>
