<svg width="140" height="53" viewBox="0 0 140 53" fill="none" xmlns="http://www.w3.org/2000/svg">
<path d="M20.0013 37.1954C20.0013 37.1954 18.2812 38.1865 21.1979 38.47C24.7137 38.894 26.5832 38.8234 30.4733 38.1167C31.2552 38.5696 32.082 38.9489 32.942 39.2491C24.1901 42.7887 13.118 39.0371 20.0004 37.1963L20.0013 37.1954ZM18.8795 32.5932C18.8795 32.5932 17.0091 33.9385 19.9267 34.2212C23.7421 34.5745 26.7335 34.6452 31.8957 33.6559C32.3978 34.138 33.0126 34.5017 33.6905 34.7176C23.1439 37.6909 11.3241 35.0003 18.8785 32.5941L18.8795 32.5932ZM39.5248 40.6642C39.5248 40.6642 40.7969 41.6553 38.1033 42.4344C33.0913 43.8504 17.0828 44.2753 12.5953 42.4344C11.0245 41.7984 14.0168 40.8771 14.9893 40.7358C15.9619 40.5238 16.4855 40.5238 16.4855 40.5238C14.7653 39.3914 5.04 42.8602 11.5388 43.8513C29.4168 46.6126 44.1532 42.6482 39.5155 40.6651L39.5248 40.6642ZM20.8245 27.7791C20.8245 27.7791 12.6709 29.6199 17.9069 30.2568C20.1507 30.5395 24.5644 30.4688 28.6776 30.1861C32.0441 29.9035 35.4097 29.3364 35.4097 29.3364C35.4097 29.3364 34.2132 29.831 33.39 30.3275C25.0871 32.3803 9.1532 31.4599 13.7153 29.3364C17.6055 27.5662 20.8217 27.7791 20.8217 27.7791H20.8245ZM35.4125 35.4959C43.7901 31.3884 39.9019 27.4248 37.2083 27.9204C36.5363 28.0617 36.2357 28.2031 36.2357 28.2031C36.2357 28.2031 36.4597 27.7791 36.9824 27.6377C42.2931 25.8675 46.4837 32.9466 35.2623 35.7087C35.2623 35.7087 35.3369 35.6381 35.4116 35.4967L35.4125 35.4959ZM21.6477 46.6815C29.7267 47.1762 42.0691 46.3988 42.3677 42.7878C42.3677 42.7878 41.7704 44.2038 35.7103 45.2655C28.8279 46.4695 20.3103 46.3273 15.2889 45.5482C15.2889 45.5482 16.3361 46.398 21.6468 46.6806L21.6477 46.6815Z" fill="#646464"/>
<path d="M30.324 4.41667C30.324 4.41667 34.9627 8.87751 25.9093 15.6023C18.6536 21.0525 24.2639 24.1689 25.9093 27.7084C21.6459 24.0982 18.5789 20.912 20.6827 17.9387C23.7421 13.5503 32.1944 11.4259 30.324 4.41667ZM27.93 24.7351C30.0991 27.0715 27.3327 29.1959 27.3327 29.1959C27.3327 29.1959 32.8673 26.5053 30.3249 23.1778C28.0056 19.9916 26.2108 18.4343 35.9343 13.1255C35.9343 13.1255 20.5996 16.7365 27.93 24.736V24.7351Z" fill="#646464"/>
<path d="M85.5652 39.3817V23.3174C85.5652 19.2187 83.1404 16.4327 77.0784 16.4327C73.6157 16.4327 70.6701 17.2524 68.0717 18.2347L68.9379 21.185C70.8419 20.5296 73.2685 19.8732 75.866 19.8732C79.1569 19.8732 80.7156 21.185 80.7156 23.8076V25.9382H78.9833C70.6701 25.9382 66.85 28.8885 66.85 33.6426C66.85 37.577 69.4484 39.8719 74.1244 39.8719C77.0691 39.8719 79.3203 38.5602 81.3988 36.9216L81.7441 39.3808H85.5549L85.5652 39.3817ZM80.7156 34.1364C78.9833 35.6116 77.0784 36.4313 75.3461 36.4313C73.0949 36.4313 71.7089 35.1196 71.7089 32.8247C71.7089 30.5298 73.0949 28.8903 78.6371 28.8903H80.7156V34.1355V34.1364ZM101.846 39.3817H95.7843L88.5099 16.9247H93.7057L98.2091 30.6941L99.2479 34.7927C101.5 28.8921 103.231 22.8262 103.924 16.9256H109.12C107.734 24.3014 105.31 32.3335 101.845 39.3825L101.846 39.3817ZM129.904 39.3817V23.3174C129.904 19.2187 127.479 16.4327 121.417 16.4327C117.955 16.4327 115.009 17.2524 112.411 18.2347L113.103 21.185C115.182 20.5296 117.607 19.8732 120.204 19.8732C123.495 19.8732 125.054 21.185 125.054 23.8076V25.9382H123.321C115.008 25.9382 111.188 28.8885 111.188 33.6426C111.188 37.577 113.613 39.8719 118.289 39.8719C121.406 39.8719 123.658 38.5602 125.737 36.9216L126.082 39.3808H129.893L129.904 39.3817ZM125.055 34.1364C123.322 35.6116 121.417 36.4313 119.685 36.4313C117.434 36.4313 116.048 35.1196 116.048 32.8247C116.048 30.5298 117.433 28.8903 122.976 28.8903H125.055V34.1355V34.1364ZM61.4908 43.1508C60.1048 45.118 58.0281 46.5932 55.4288 47.4129L53.1767 44.7894C54.9089 43.8063 56.6412 42.3311 57.3337 41.0194C58.0263 39.871 58.1999 38.2324 58.1999 34.4624V8.88987H63.3957V34.1338C63.3957 39.2156 62.8759 41.1828 61.4917 43.1491L61.4908 43.1508Z" fill="#646464"/>
</svg>
