<svg width="52" height="52" viewBox="0 0 52 52" fill="none" xmlns="http://www.w3.org/2000/svg">
<g clip-path="url(#clip0)">
<path d="M48.1487 0.00201416H3.83825C1.7225 0.00201416 0 1.68064 0 3.74764V48.2466C0 50.3185 1.7225 52.0004 3.83825 52.0004H48.152C50.2726 52.0004 52 50.3185 52 48.2466V3.74764C52 1.68064 50.2726 0.00201416 48.1487 0.00201416Z" fill="#808080"/>
<path d="M7.7106 19.4951H15.4375V44.3089H7.7106V19.4951ZM11.5684 7.14514C14.0335 7.14514 16.0371 9.14877 16.0371 11.6139C16.0371 14.079 14.0335 16.0875 11.57 16.0875C10.3841 16.0849 9.24758 15.6128 8.40891 14.7745C7.57025 13.9361 7.09773 12.7997 7.09473 11.6139C7.09473 11.0266 7.21047 10.4451 7.43536 9.90265C7.66024 9.36016 7.98984 8.86731 8.40532 8.45229C8.82079 8.03726 9.314 7.7082 9.85674 7.48391C10.3995 7.25962 10.9811 7.1445 11.5684 7.14514ZM20.2621 19.4951H27.6591V22.8865H27.7615C28.7917 20.9365 31.3072 18.8793 35.074 18.8793C42.8837 18.8793 44.3251 24.0191 44.3251 30.6995V44.3105H36.6177V32.24C36.6177 29.3638 36.5657 25.6588 32.6105 25.6588C28.5967 25.6588 27.9792 28.795 27.9792 32.0288V44.304H20.2735V19.4903L20.2621 19.4951Z" fill="#CECFF5"/>
</g>
<defs>
<clipPath id="clip0">
<rect width="52" height="52" rx="26" fill="white"/>
</clipPath>
</defs>
</svg>
