<svg width="184" height="46" viewBox="0 0 184 46" fill="none" xmlns="http://www.w3.org/2000/svg">
<path fill-rule="evenodd" clip-rule="evenodd" d="M29.0358 28.8966C27.7132 28.8668 26.6791 28.9961 25.814 29.364C25.5654 29.4634 25.1676 29.4634 25.1378 29.7816C25.2671 29.9109 25.287 30.1297 25.4063 30.3087C25.6339 30.6941 25.9266 31.0373 26.2714 31.3229L27.3354 32.0886C27.9817 32.4863 28.7076 32.715 29.344 33.1128C29.7119 33.3415 30.0699 33.6398 30.3384 33.8884C30.5174 34.0177 30.6367 34.2364 30.8654 34.316V34.2663C30.7461 34.1171 30.7162 33.8983 30.5969 33.7392L30.0997 33.2619C29.6152 32.6203 29.035 32.0569 28.3795 31.5914C27.8524 31.2235 26.689 30.7263 26.4703 30.1197L26.4404 30.0899C26.8084 30.0601 27.2359 29.9208 27.584 29.8214C28.1508 29.6723 28.6579 29.7021 29.2446 29.5529L30.0401 29.3242V29.1751C29.7418 28.8768 29.523 28.479 29.2147 28.2006C28.3695 27.4747 27.4448 26.7587 26.4802 26.1621C25.9631 25.834 25.3068 25.6152 24.7599 25.3368C24.5611 25.2373 24.2329 25.1876 24.1136 25.0186C23.8153 24.6507 23.6462 24.1734 23.4374 23.7458L22.0751 20.8621C21.7768 20.2158 21.5978 19.5694 21.2299 18.9728C19.6942 16.3612 17.4772 14.2163 14.8162 12.7679C14.1997 12.4199 13.4738 12.2707 12.6982 12.0917L11.4552 12.0221C11.1867 11.9028 10.9282 11.5945 10.6895 11.4454C9.74489 10.8487 7.30868 9.55606 6.71205 11.2664C6.26458 12.3403 7.37828 13.4043 7.75614 13.9512C8.03457 14.3291 8.40249 14.7666 8.60136 15.1942C8.72069 15.4726 8.75052 15.7709 8.86984 16.0692L9.73495 18.2867C9.91447 18.643 10.1206 18.9854 10.3515 19.3109C10.4807 19.4899 10.7194 19.5794 10.7691 19.8777C10.5404 20.2058 10.5205 20.703 10.3912 21.1206C9.79461 22.9901 10.0233 25.3169 10.8685 26.6891C11.137 27.1068 11.8629 28.0116 12.6087 27.6636C13.3545 27.3653 13.1854 26.4206 13.4042 25.5953C13.4539 25.3964 13.4241 25.2672 13.5235 25.128V25.1578L14.1997 26.53C14.7168 27.3454 15.6117 28.1906 16.3575 28.7475C16.7552 29.0458 17.0734 29.5629 17.5706 29.7419V29.6921H17.501C17.4016 29.543 17.2524 29.4734 17.1231 29.364C16.8081 29.0567 16.5188 28.7242 16.258 28.3696C15.556 27.4184 14.934 26.4107 14.3986 25.3567C14.1301 24.8396 13.9014 24.2827 13.6826 23.7657C13.5832 23.5668 13.5832 23.2685 13.4141 23.169C13.1655 23.537 12.7976 23.8452 12.6186 24.2927C12.3004 25.0086 12.2706 25.8837 12.1513 26.7985C11.5547 26.6991 11.3757 26.1522 11.1768 25.6848C10.6796 24.5115 10.6001 22.6023 11.0276 21.2598C11.147 20.9118 11.6441 19.818 11.4453 19.4899C11.3458 19.1717 11.0177 18.9927 10.8288 18.7441C10.61 18.4259 10.3813 18.0281 10.2321 17.6801C9.94377 16.7454 9.64545 15.7112 9.21787 14.7865C9.019 14.3589 8.67097 13.9214 8.3826 13.5236C8.07434 13.0662 7.72631 12.748 7.47772 12.2309C7.38823 12.0321 7.27884 11.7337 7.40811 11.5349C7.43794 11.4056 7.50755 11.3559 7.63682 11.3161C7.85558 11.1371 8.46215 11.3658 8.68091 11.4653C9.29742 11.7139 9.80455 11.9426 10.3216 12.2906C10.5503 12.4596 10.7989 12.7679 11.0972 12.8574H11.4453C11.9723 12.9767 12.5689 12.8872 13.0661 13.0364C13.9412 13.3148 14.7367 13.7324 15.4526 14.1799C17.647 15.5788 19.4312 17.5346 20.6233 19.8478C20.8222 20.2257 20.9018 20.5737 21.0907 20.9715L22.2143 23.4077C22.5624 24.1833 22.8905 24.9788 23.3877 25.6251C23.6363 25.9732 24.6307 26.1522 25.0781 26.3411C25.4063 26.4903 25.9234 26.6195 26.2217 26.8085L27.8823 27.9321C28.1508 28.131 28.8767 28.5486 29.0258 28.8768L29.0358 28.8966Z" fill="#646464"/>
<path fill-rule="evenodd" clip-rule="evenodd" d="M12.1314 14.4881C11.853 14.4881 11.6541 14.518 11.4552 14.5677V14.5975H11.485C11.6143 14.866 11.8529 15.045 12.012 15.2737L12.3899 16.0692L12.4197 16.0394C12.6484 15.8703 12.7678 15.6118 12.7678 15.214C12.6683 15.0947 12.6485 14.9853 12.5689 14.866C12.4695 14.697 12.2507 14.6174 12.1214 14.4881H12.1314Z" fill="#646464"/>
<path fill-rule="evenodd" clip-rule="evenodd" d="M100.074 33.2122H114.333C116.004 33.2122 117.595 32.8741 118.887 32.2676C121.045 31.2732 122.069 29.9507 122.069 28.2105V24.5711C122.069 23.179 120.896 21.8366 118.549 20.9317C117.199 20.4524 115.776 20.2102 114.343 20.2158H108.357C106.348 20.2158 105.404 19.6191 105.135 18.2867C105.095 18.1375 105.095 17.9884 105.095 17.8293V15.5919C105.095 15.4726 105.095 15.3234 105.135 15.1743C105.404 14.1501 105.931 13.8816 107.681 13.6827H122.278V10.3814H108.387C106.378 10.3814 105.304 10.5007 104.37 10.799C101.446 11.694 100.163 13.1458 100.163 15.6914V18.575C100.163 20.8124 102.669 22.7116 106.925 23.1492C107.382 23.1889 107.87 23.1889 108.367 23.1889H113.488C113.687 23.1889 113.866 23.1889 114.015 23.2287C115.566 23.3779 116.252 23.6463 116.7 24.2231C116.998 24.5214 117.078 24.7899 117.078 25.1379V28.0216C117.078 28.3597 116.849 28.8171 116.382 29.195C115.914 29.5728 115.208 29.8413 114.254 29.891C114.055 29.891 113.955 29.9308 113.756 29.9308H100.074V33.2122ZM152.925 27.4846C152.925 30.8655 155.47 32.7548 160.552 33.1327L161.994 33.2122H174.881V29.9308H161.884C158.901 29.9308 157.907 29.2148 157.907 27.4647V10.3913H152.935V27.4946L152.925 27.4846ZM125.212 27.6338V15.8902C125.212 12.9071 127.33 11.0775 131.476 10.5206L132.799 10.4411H142.205C142.703 10.4411 143.12 10.4808 143.598 10.5206C147.734 11.0874 149.812 12.9071 149.812 15.8902V27.6437C149.812 30.07 148.937 31.3627 146.889 32.2179L151.742 36.613H146.014L142.066 33.0531L138.089 33.2818H132.779C131.904 33.2818 130.919 33.1824 129.796 32.904C126.653 32.0289 125.092 30.3584 125.092 27.6338H125.212ZM130.561 27.3752C130.561 27.5244 130.641 27.6736 130.681 27.8724C130.949 29.2347 132.232 29.9905 134.201 29.9905H138.675L134.579 26.2715H140.306L143.906 29.533C144.602 29.1552 145 28.6182 145.159 27.942C145.199 27.7929 145.199 27.604 145.199 27.4449V16.2084C145.199 16.0593 145.199 15.9101 145.159 15.751C144.89 14.4583 143.608 13.7424 141.678 13.7424H134.221C132.033 13.7424 130.581 14.687 130.581 16.2084L130.561 27.3752Z" fill="#808080"/>
<path fill-rule="evenodd" clip-rule="evenodd" d="M34.2562 33.2321H39.1883V13.7026L46.8847 30.7263C47.7598 32.7747 49.0127 33.5304 51.439 33.5304C53.8653 33.5304 55.0386 32.7747 55.9534 30.7263L63.6101 13.7026V33.2321H68.582V13.7026C68.582 11.8133 67.8263 10.8985 66.2353 10.4013C62.4865 9.26769 59.9707 10.2521 58.8371 12.7878L51.2799 29.6225L44.0011 12.7878C42.9073 10.2521 40.3617 9.26769 36.5731 10.4013C35.0219 10.8985 34.2562 11.7934 34.2562 13.7026V33.2321ZM72.6689 17.342H77.6407V28.0812C77.601 28.6779 77.8396 30.0501 80.6239 30.0899H91.2836V17.2625H96.2554V34.8132C96.2554 39.1387 90.9057 40.0833 88.3999 40.1231H72.7882V36.8218H88.4496C91.6316 36.4837 91.2537 34.8927 91.2537 34.3557V33.0631H80.7432C75.8509 33.0233 72.7086 30.8754 72.6689 28.3895V17.342Z" fill="#646464"/>
</svg>
