<svg width="120" height="60" viewBox="0 0 120 60" fill="none" xmlns="http://www.w3.org/2000/svg">
<path d="M13.6365 31.9835C13.6365 45.0466 34.0469 55.6367 59.2234 55.6367C84.3999 55.6367 104.81 45.0466 104.81 31.9835C104.81 18.9204 84.3999 8.33029 59.2234 8.33029C34.0469 8.33029 13.6365 18.9206 13.6365 31.9835Z" fill="#646464"/>
<path d="M59.2234 53.8803C83.4167 53.8803 103.029 44.0768 103.029 31.9835C103.029 19.8902 83.4167 10.0867 59.2234 10.0867C35.0301 10.0867 15.4173 19.8902 15.4173 31.9835C15.4173 44.0768 35.0301 53.8803 59.2234 53.8803Z" fill="#646464"/>
<path d="M38.4043 34.6983C40.3936 34.6983 41.8787 34.3364 42.8182 33.6233C43.7478 32.9175 44.3898 31.6942 44.7264 29.988C45.0401 28.3932 44.9206 27.2797 44.3712 26.6788C43.8095 26.065 42.5949 25.7537 40.7614 25.7537H37.5825L35.8199 34.6985H38.4041L38.4043 34.6983ZM28.0061 45.7166C27.8585 45.7166 27.7184 45.6516 27.6245 45.539C27.5781 45.4835 27.5448 45.4186 27.5268 45.3488C27.5089 45.2791 27.5068 45.2063 27.5207 45.1357L32.1915 21.4321C32.2134 21.3209 32.2738 21.2208 32.3624 21.1488C32.451 21.0767 32.5623 21.0374 32.6771 21.0374H42.7438C45.9076 21.0374 48.2625 21.8831 49.7426 23.5561C51.2307 25.236 51.6902 27.5848 51.1083 30.5362C50.8716 31.7387 50.4643 32.8554 49.8981 33.8555C49.3309 34.8565 48.5817 35.7827 47.6705 36.6089C46.5797 37.6159 45.345 38.3461 44.0042 38.7758C42.6846 39.1998 40.9901 39.415 38.9673 39.415H34.8911L33.727 45.3221C33.7051 45.4332 33.6447 45.5334 33.5562 45.6055C33.4676 45.6775 33.3564 45.7169 33.2416 45.7169H28.0061V45.7166Z" fill="#3D424B"/>
<path d="M37.9904 26.2414H40.7618C42.9745 26.2414 43.7433 26.7204 44.0045 27.0058C44.4378 27.4797 44.5196 28.4789 44.2411 29.8953C43.9282 31.481 43.3481 32.6052 42.5168 33.2366C41.6656 33.8829 40.2819 34.2104 38.4046 34.2104H36.4201L37.9902 26.2414H37.9904ZM42.744 20.5493H32.6772C32.4476 20.5493 32.2252 20.6281 32.048 20.7722C31.8709 20.9163 31.75 21.1166 31.7062 21.3389L27.0354 45.0428C27.0076 45.1841 27.0118 45.3297 27.0477 45.4691C27.0836 45.6086 27.1504 45.7385 27.2432 45.8496C27.336 45.9606 27.4525 46.05 27.5845 46.1114C27.7164 46.1728 27.8605 46.2047 28.0064 46.2047H33.2414C33.4711 46.2047 33.6935 46.1259 33.8707 45.9819C34.0479 45.8378 34.1688 45.6374 34.2126 45.4151L35.2989 39.9027H38.9675C41.0421 39.9027 42.7885 39.6796 44.158 39.2396C45.5661 38.7883 46.8621 38.0232 48.0087 36.9654C48.9571 36.1047 49.74 35.1387 50.3302 34.0938C50.9205 33.0489 51.3476 31.883 51.5946 30.6294C52.2071 27.5225 51.7095 25.0345 50.1156 23.2352C48.5373 21.4531 46.0571 20.5495 42.7443 20.5495L42.744 20.5493ZM35.2202 35.1864H38.4046C40.5151 35.1864 42.0874 34.7944 43.1202 34.0099C44.1531 33.2253 44.8502 31.916 45.2123 30.0812C45.5585 28.3196 45.4009 27.0764 44.7391 26.352C44.0772 25.6277 42.7506 25.2656 40.7621 25.2656H37.1752L35.2204 35.1862L35.2202 35.1864ZM42.7445 21.5251C45.7729 21.5251 47.9822 22.309 49.3708 23.8768C50.7594 25.4445 51.1774 27.6332 50.6234 30.443C50.3954 31.6005 50.0097 32.6587 49.4668 33.6176C48.9238 34.5765 48.2133 35.4542 47.3361 36.2497C46.2908 37.2145 45.1295 37.902 43.8517 38.3118C42.5738 38.7225 40.9464 38.9269 38.9678 38.9269H34.4837L33.2421 45.2289H28.0071L32.6772 21.5251H42.7441" fill="#2F3239"/>
<path d="M63.1118 39.4146C62.9641 39.4146 62.8241 39.3496 62.7303 39.237C62.6365 39.1245 62.598 38.9768 62.6264 38.8337L64.6924 28.3456C64.8889 27.3481 64.8405 26.6322 64.556 26.3297C64.3819 26.1448 63.8589 25.8347 62.3125 25.8347H58.5693L55.9716 39.0196C55.9497 39.1308 55.8892 39.231 55.8006 39.303C55.712 39.3751 55.6008 39.4145 55.486 39.4145H50.2922C50.2192 39.4145 50.1472 39.3986 50.0812 39.3679C50.0152 39.3372 49.9569 39.2925 49.9105 39.2369C49.8641 39.1814 49.8307 39.1165 49.8127 39.0467C49.7948 38.977 49.7927 38.9042 49.8066 38.8335L54.4774 15.1299C54.4993 15.0188 54.5598 14.9186 54.6483 14.8466C54.7369 14.7746 54.8482 14.7352 54.963 14.7352H60.1568C60.2297 14.7352 60.3018 14.7511 60.3678 14.7818C60.4338 14.8125 60.492 14.8572 60.5384 14.9128C60.5849 14.9683 60.6182 15.0332 60.6362 15.103C60.6542 15.1727 60.6563 15.2455 60.6424 15.3161L59.5152 21.0372H63.542C66.6096 21.0372 68.6896 21.5706 69.9015 22.6681C71.1382 23.7876 71.5218 25.5776 71.047 27.9894L68.8738 39.0199C68.8519 39.1311 68.7915 39.2313 68.7029 39.3034C68.6143 39.3754 68.5031 39.4148 68.3882 39.4148H63.112L63.1118 39.4146Z" fill="#3D424B"/>
<path d="M60.1566 14.2473H54.9628C54.7332 14.2473 54.5107 14.3261 54.3335 14.4701C54.1563 14.6142 54.0355 14.8146 53.9916 15.0369L49.3208 38.7405C49.293 38.8818 49.2972 39.0274 49.3332 39.1669C49.3691 39.3063 49.4358 39.4363 49.5287 39.5473C49.6215 39.6583 49.7381 39.7478 49.87 39.8091C50.002 39.8705 50.1461 39.9024 50.292 39.9024H55.4858C55.7154 39.9024 55.9379 39.8236 56.1151 39.6795C56.2923 39.5355 56.4131 39.3351 56.457 39.1128L58.9769 26.3226H62.3125C63.8563 26.3226 64.1803 26.6479 64.1933 26.6618C64.2869 26.761 64.4101 27.2213 64.2068 28.2524L62.1408 38.7405C62.113 38.8818 62.1172 39.0274 62.1531 39.1669C62.1891 39.3063 62.2558 39.4363 62.3486 39.5473C62.4415 39.6583 62.558 39.7478 62.69 39.8091C62.822 39.8705 62.9661 39.9024 63.112 39.9024H68.3882C68.6179 39.9024 68.8403 39.8236 69.0175 39.6795C69.1947 39.5355 69.3156 39.3351 69.3594 39.1128L71.5326 28.0823C72.0425 25.4932 71.6063 23.5507 70.2366 22.3088C68.9294 21.1249 66.7397 20.5492 63.5423 20.5492H60.1154L61.1283 15.4092C61.1561 15.2679 61.1519 15.1223 61.116 14.9828C61.0801 14.8433 61.0133 14.7133 60.9205 14.6023C60.8277 14.4912 60.7111 14.4018 60.5791 14.3404C60.4472 14.279 60.303 14.2472 60.1571 14.2472L60.1566 14.2473ZM60.1571 15.223L58.9155 21.5249H63.5425C66.4538 21.5249 68.4619 22.0262 69.5673 23.0273C70.6727 24.0285 71.0034 25.6522 70.5619 27.8962L68.3887 38.9266H63.1125L65.1785 28.4388C65.4136 27.2457 65.3272 26.4319 64.9189 25.998C64.5107 25.5641 63.6417 25.3468 62.313 25.3468H58.1615L55.4861 38.9266H50.2923L54.9631 15.223H60.1569" fill="#2F3239"/>
<path d="M79.2649 34.6983C81.2542 34.6983 82.7393 34.3364 83.6788 33.6233C84.6084 32.9175 85.2505 31.6945 85.5872 29.988C85.901 28.3932 85.7814 27.2797 85.2319 26.6788C84.6701 26.065 83.4556 25.7537 81.6221 25.7537H78.4431L76.6805 34.6985H79.2647L79.2649 34.6983ZM68.8671 45.7166C68.7195 45.7166 68.5793 45.6516 68.4855 45.539C68.4391 45.4835 68.4057 45.4186 68.3877 45.3489C68.3697 45.2791 68.3676 45.2063 68.3815 45.1357L73.0523 21.4321C73.0742 21.3209 73.1347 21.2207 73.2233 21.1487C73.3119 21.0767 73.4232 21.0373 73.538 21.0374H83.6046C86.7687 21.0374 89.1233 21.8831 90.6036 23.5561C92.0916 25.236 92.5509 27.5845 91.9693 30.5362C91.7322 31.7387 91.3251 32.8554 90.7587 33.8555C90.1915 34.8565 89.4423 35.7827 88.5312 36.6089C87.4403 37.6159 86.2057 38.3461 84.8648 38.7758C83.5453 39.1998 81.8508 39.415 79.828 39.415H75.7513L74.5877 45.3221C74.5658 45.4333 74.5053 45.5335 74.4167 45.6056C74.3281 45.6776 74.2168 45.717 74.1019 45.7169H68.8669L68.8671 45.7166Z" fill="#3D424B"/>
<path d="M78.8511 26.2414H81.6224C83.8351 26.2414 84.604 26.7204 84.8652 27.0058C85.2988 27.4797 85.3804 28.4789 85.1018 29.8951C84.7888 31.4808 84.2086 32.6052 83.3774 33.2366C82.5263 33.8829 81.1426 34.2104 79.2652 34.2104H77.2812L78.8512 26.2414H78.8511ZM83.6046 20.5493H73.5379C73.3083 20.5493 73.0858 20.6281 72.9087 20.7722C72.7315 20.9163 72.6107 21.1166 72.5669 21.3389L67.8962 45.0428C67.8684 45.1841 67.8726 45.3297 67.9085 45.4691C67.9445 45.6086 68.0112 45.7385 68.104 45.8496C68.1968 45.9606 68.3133 46.05 68.4453 46.1114C68.5772 46.1728 68.7213 46.2047 68.8672 46.2047H74.1023C74.3319 46.2047 74.5544 46.1259 74.7315 45.9819C74.9087 45.8378 75.0296 45.6374 75.0734 45.4151L76.1595 39.9027H79.8281C81.9027 39.9027 83.6491 39.6796 85.0187 39.2396C86.4268 38.7883 87.7227 38.0232 88.8697 36.9651C89.8181 36.1047 90.599 35.1387 91.1909 34.0938C91.7828 33.0489 92.2082 31.883 92.4552 30.6294C93.0678 27.5223 92.5701 25.0344 90.9762 23.235C89.398 21.4531 86.918 20.5495 83.605 20.5495L83.6046 20.5493ZM76.081 35.1864H79.2652C81.3757 35.1864 82.9481 34.7944 83.9809 34.0099C85.0137 33.2253 85.7108 31.916 86.0729 30.0812C86.4195 28.3196 86.2617 27.0764 85.5997 26.352C84.9377 25.6277 83.6112 25.2656 81.6227 25.2656H78.0359L76.0812 35.1862L76.081 35.1864ZM83.6051 21.5251C86.6335 21.5251 88.8428 22.309 90.2314 23.8768C91.6201 25.4445 92.0381 27.6332 91.4841 30.443C91.256 31.6005 90.8704 32.6587 90.3274 33.6176C89.7844 34.5765 89.074 35.4542 88.1968 36.2497C87.1514 37.2145 85.9902 37.902 84.7123 38.3118C83.4345 38.7225 81.8071 38.9269 79.8285 38.9269H75.3443L74.1027 45.2289H68.8677L73.5385 21.5253H83.6053" fill="#2F3239"/>
</svg>
