<svg width="180" height="86" viewBox="0 0 180 86" fill="none" xmlns="http://www.w3.org/2000/svg">
<path d="M72.3756 41.6492C72.3756 36.7186 70.9046 34.1887 67.9621 34.0497C66.7914 33.9971 65.6486 34.1709 64.5363 34.5872C63.649 34.8903 63.056 35.191 62.7371 35.4945V47.262C64.6192 48.3904 66.2907 48.919 67.7481 48.8329C70.8356 48.6382 72.3752 46.2464 72.3752 41.6488L72.3756 41.6492ZM76.0053 41.8537C76.0053 44.3582 75.3907 46.4368 74.1541 48.0905C72.7761 49.9617 70.8665 50.9252 68.4248 50.9782C66.5842 51.0347 64.6881 50.4831 62.7371 49.328V60.023L59.5807 58.9471V35.2083C60.0988 34.6013 60.7649 34.08 61.5685 33.6374C63.4472 32.5915 65.7303 32.0532 68.4202 32.0269L68.465 32.0697C70.9202 32.0402 72.8129 32.9993 74.1422 34.957C75.3814 36.749 76.0032 39.0457 76.0032 41.8537H76.0053ZM95.2915 48.8726C95.2915 52.2318 94.9392 54.5589 94.2342 55.8522C93.5262 57.1454 92.1795 58.1784 90.1908 58.9479C88.5781 59.555 86.8339 59.8856 84.9624 59.9413L84.4409 58.0406C86.3442 57.7933 87.6836 57.5455 88.4606 57.2982C89.9904 56.8031 91.0405 56.0441 91.617 55.0277C92.0797 54.1992 92.3077 52.619 92.3077 50.279V49.4937C90.1781 50.4239 87.863 50.9023 85.5215 50.8961C83.9676 50.8961 82.5965 50.4314 81.4156 49.4937C80.0897 48.4741 79.4265 47.1804 79.4265 45.6131V33.0603L82.5829 32.0273V44.6626C82.5829 46.0124 83.0388 47.0519 83.9503 47.781C84.8617 48.51 86.043 48.86 87.4903 48.8338C88.9368 48.8043 90.4877 48.2696 92.1351 47.2232V32.4824H95.2915V48.8726ZM107.617 50.8133L106.578 50.8561C104.793 50.8561 103.401 50.4503 102.406 49.6356C101.415 48.8204 100.918 47.6957 100.918 46.2597V34.3758H98.7605V32.4783H100.918V27.4431L104.071 26.3705V32.482H107.617V34.3794H104.071V46.1805C104.071 47.3121 104.388 48.1144 105.024 48.5828C105.574 48.9687 106.437 49.1898 107.617 49.2456V50.8165V50.8133ZM126.729 50.5659H123.573V38.9237C123.573 37.7395 123.282 36.7195 122.706 35.8683C122.039 34.9048 121.114 34.4231 119.926 34.4231C118.479 34.4231 116.669 35.1522 114.497 36.6107V50.5659H111.34V22.7376L114.497 21.787V34.4619C116.513 33.0595 118.717 32.3603 121.11 32.3603C122.781 32.3603 124.135 32.8978 125.171 33.9709C126.21 35.0435 126.728 36.3796 126.728 37.9768V50.57L126.729 50.5659ZM143.506 41.1744C143.506 39.2801 143.125 37.7161 142.38 36.4782C141.488 34.9707 140.104 34.1745 138.232 34.0925C134.773 34.2841 133.045 36.6532 133.045 41.1934C133.045 43.2755 133.405 45.0146 134.13 46.4069C135.055 48.1851 136.443 49.0633 138.294 49.0338C141.768 49.0075 143.505 46.3875 143.505 41.1699L143.506 41.1744ZM146.962 41.1946C146.962 43.8902 146.24 46.1345 144.805 47.9264C143.22 49.9326 141.03 50.9394 138.237 50.9394C135.467 50.9394 133.309 49.929 131.751 47.9264C130.339 46.1345 129.635 43.8906 129.635 41.1946C129.635 38.6606 130.398 36.5283 131.924 34.7929C133.537 32.9516 135.657 32.0277 138.278 32.0277C140.899 32.0277 143.034 32.9516 144.677 34.7929C146.2 36.5287 146.967 38.6606 146.967 41.1946H146.962ZM165.058 50.5659H161.901V38.2637C161.901 36.9138 161.477 35.8614 160.627 35.1025C159.781 34.3467 158.645 33.9806 157.233 34.0101C155.734 34.0363 154.308 34.5051 152.954 35.4124V50.5659H149.797V35.0398C151.614 33.7761 153.285 32.9504 154.812 32.5648C156.252 32.2011 157.519 32.0273 158.617 32.0273C159.367 32.0273 160.071 32.096 160.734 32.235C161.973 32.5091 162.982 33.0171 163.759 33.7627C164.627 34.5872 165.058 35.5814 165.058 36.736V50.5659Z" fill="#646464"/>
<path d="M28.4058 22.8495C26.7817 22.8568 25.2308 22.989 23.8664 23.2197C19.8463 23.8987 19.1167 25.3189 19.1167 27.9381V31.3976H28.6161V32.5507H15.5471C12.7861 32.5507 10.3685 34.1365 9.61315 37.1527C8.74104 40.6102 8.70213 42.7679 9.61315 46.3782C10.2886 49.0657 11.9013 50.9802 14.6618 50.9802H17.9282V46.8332C17.9282 43.8369 20.641 41.1942 23.8622 41.1942H33.3509C35.9922 41.1942 38.1006 39.116 38.1006 36.5812V27.9377C38.1006 25.4777 35.9288 23.6295 33.3509 23.2193C31.7192 22.9599 30.0257 22.8419 28.4016 22.8491L28.4058 22.8495ZM23.2641 25.6313C24.2453 25.6313 25.0468 26.4097 25.0468 27.3663C25.0468 28.3201 24.2453 29.0908 23.2641 29.0908C22.2795 29.0908 21.4814 28.3197 21.4814 27.3663C21.4814 26.4093 22.2791 25.6313 23.2641 25.6313Z" fill="#808080"/>
<path d="M39.2937 32.5507V36.5816C39.2937 39.7069 36.5209 42.3367 33.3598 42.3367H23.871C21.272 42.3367 19.1214 44.4625 19.1214 46.9496V55.5935C19.1214 58.0536 21.36 59.5004 23.871 60.2065C26.8739 61.0511 29.7618 61.2039 33.3598 60.2065C35.7515 59.5449 38.1095 58.2132 38.1095 55.5935V52.134H28.6207V50.981H42.8591C45.6201 50.981 46.6487 49.1409 47.6088 46.379C48.6006 43.5354 48.5583 40.8009 47.6088 37.1535C46.9266 34.5274 45.6235 32.5515 42.8591 32.5515H39.2937V32.5507ZM33.957 54.4405C34.9416 54.4405 35.7397 55.2116 35.7397 56.165C35.7397 57.122 34.942 57.9 33.957 57.9C32.9758 57.9 32.1743 57.1216 32.1743 56.165C32.1743 55.2112 32.9758 54.4405 33.957 54.4405Z" fill="#646464"/>
<path d="M171.205 29.7928H171.758V26.4768H173.069V26.0815H169.893V26.4768H171.205V29.7928ZM173.56 29.7928H174.032V26.7641L175.059 29.7928H175.585L176.655 26.7738V29.7928H177.171V26.0811H176.488L175.32 29.2609L174.323 26.0811H173.56V29.7928" fill="#646464"/>
<path opacity="0.444" d="M41.4543 66.0823C41.4543 67.385 35.7547 68.4412 28.724 68.4412C21.6933 68.4412 15.9937 67.3852 15.9937 66.0823C15.9937 64.7794 21.6933 63.7234 28.724 63.7234C35.7547 63.7234 41.4543 64.7794 41.4543 66.0823Z" fill="url(#paint0_radial)"/>
<defs>
<radialGradient id="paint0_radial" cx="0" cy="0" r="1" gradientUnits="userSpaceOnUse" gradientTransform="translate(28.724 66.0822) rotate(-90) scale(2.35882 10.8502)">
<stop stop-color="#B8B8B8" stop-opacity="0.498"/>
<stop offset="1" stop-color="#7F7F7F" stop-opacity="0"/>
</radialGradient>
</defs>
</svg>
