<svg width="138" height="69" viewBox="0 0 138 69" fill="none" xmlns="http://www.w3.org/2000/svg">
<path d="M29.9464 38.4603C32.1539 38.4603 33.9433 36.6709 33.9433 34.4634C33.9433 32.256 32.1539 30.4665 29.9464 30.4665C27.739 30.4665 25.9495 32.256 25.9495 34.4634C25.9495 36.6709 27.739 38.4603 29.9464 38.4603Z" fill="#808080"/>
<path fill-rule="evenodd" clip-rule="evenodd" d="M29.9465 26.3369C35.3129 26.3369 40.2981 27.1069 44.057 28.4009C48.5859 29.9601 51.3704 32.3234 51.3704 34.4634C51.3704 36.6934 48.4193 39.2041 43.5559 40.8155C39.8791 42.0337 35.0406 42.6696 29.9465 42.6696C24.7237 42.6696 19.778 42.0727 16.0597 40.8021C11.3554 39.1942 8.52191 36.651 8.52191 34.4634C8.52191 32.3408 11.1806 29.9957 15.6458 28.4389C19.4187 27.1236 24.527 26.3369 29.9458 26.3369H29.9465Z" stroke="#808080" stroke-width="24"/>
<path fill-rule="evenodd" clip-rule="evenodd" d="M22.8721 30.4236C25.5531 25.7749 28.7105 21.841 31.7093 19.2313C35.3225 16.0869 38.7609 14.8555 40.6146 15.9245C42.5465 17.0385 43.2471 20.8493 42.2134 25.8672C41.4326 29.661 39.5656 34.17 37.0207 38.5829C34.4114 43.1073 31.4237 47.0934 28.4657 49.6789C24.7227 52.9509 21.104 54.135 19.209 53.0421C17.3702 51.9825 16.667 48.5072 17.5492 43.8613C18.2945 39.9359 20.165 35.1177 22.8712 30.4235L22.8721 30.4236Z" stroke="#808080" stroke-width="24"/>
<path fill-rule="evenodd" clip-rule="evenodd" d="M22.8788 38.5947C20.1903 33.9513 18.3598 29.2503 17.5957 25.3489C16.676 20.6482 17.3263 17.0542 19.1783 15.9822C21.1083 14.8648 24.7598 16.1609 28.5908 19.5626C31.4874 22.1344 34.4617 26.0031 37.014 30.4118C39.6307 34.9318 41.5919 39.5111 42.3549 43.365C43.3202 48.242 42.5389 51.9683 40.6457 53.0643C38.8087 54.1278 35.4471 53.0018 31.8626 49.9173C28.834 47.3112 25.5939 43.2843 22.8788 38.5947V38.5947Z" stroke="#808080" stroke-width="24"/>
<path fill-rule="evenodd" clip-rule="evenodd" d="M74.313 44.6752L69.414 37.2738C71.89 37.0553 74.121 35.2613 74.121 31.9838C74.121 28.6488 71.7543 26.5144 68.4342 26.5144H61.1432V44.6614H63.4018V37.4509H67.0209L71.6462 44.6614L74.313 44.6752ZM68.164 35.4787H63.403V28.5407H68.164C70.3145 28.5407 71.783 29.9552 71.783 31.9965C71.783 34.0377 70.3133 35.481 68.164 35.481V35.4787ZM82.7207 45.0007C84.8712 45.0007 86.6387 44.2934 87.9451 42.9882L86.9653 41.6542C85.9303 42.7156 84.4077 43.3136 82.9116 43.3136C80.0826 43.3136 78.3403 41.2459 78.177 38.7711H88.8145V38.2536C88.8145 34.3091 86.4743 31.2064 82.501 31.2064C78.7463 31.2064 76.0265 34.2815 76.0265 38.0903C76.0265 42.1993 78.8291 44.9903 82.7195 44.9903L82.7207 45.0007ZM86.8032 37.2727H78.1782C78.2874 35.2602 79.6732 32.8912 82.4769 32.8912C85.4703 32.8912 86.7756 35.3131 86.8032 37.2727ZM102.367 44.6741V35.6408C102.367 32.4576 100.056 31.2053 97.2797 31.2053C95.1292 31.2053 93.4433 31.9125 92.0288 33.3822L92.981 34.7967C94.1505 33.5455 95.4305 32.974 97.0083 32.974C98.9127 32.974 100.328 33.9802 100.328 35.7489V38.1156C99.2669 36.8909 97.7707 36.3193 95.9744 36.3193C93.7434 36.3193 91.3744 37.7074 91.3744 40.6456C91.3744 43.5022 93.7411 44.9995 95.9744 44.9995C97.7431 44.9995 99.2404 44.3739 100.328 43.1768V44.6718L102.367 44.6741ZM96.7093 43.531C94.8049 43.531 93.4709 42.335 93.4709 40.6744C93.4709 38.9873 94.8049 37.7902 96.7093 37.7902C98.1514 37.7902 99.5383 38.3341 100.328 39.4232V41.8991C99.5394 42.987 98.1514 43.5321 96.7093 43.5321V43.531ZM112.234 45.0007C114.629 45.0007 116.043 44.0209 117.05 42.7156L115.69 41.4644C114.819 42.634 113.704 43.1779 112.355 43.1779C109.552 43.1779 107.813 41.001 107.813 38.0903C107.813 35.1797 109.554 33.0303 112.355 33.0303C113.715 33.0303 114.831 33.5478 115.69 34.7438L117.05 33.4926C116.044 32.1862 114.629 31.2076 112.234 31.2076C108.316 31.2076 105.677 34.201 105.677 38.0915C105.677 42.0095 108.316 44.9915 112.234 44.9915V45.0007ZM123.228 45.0007C124.424 45.0007 125.16 44.6465 125.678 44.1577L125.08 42.634C124.807 42.933 124.275 43.1779 123.692 43.1779C122.795 43.1779 122.358 42.4707 122.358 41.4909V33.3282H125.026V31.533H122.358V27.9416H120.316V31.533H118.14V33.3293H120.316V41.9279C120.316 43.8875 121.296 45.003 123.228 45.003V45.0007Z" fill="#808080"/>
</svg>
