<svg width="52" height="52" viewBox="0 0 52 52" fill="none" xmlns="http://www.w3.org/2000/svg">
<path d="M51.9848 0H0.0152344C0.00682066 0 0 0.00682066 0 0.0152344V51.9848C0 51.9932 0.00682066 52 0.0152344 52H51.9848C51.9932 52 52 51.9932 52 51.9848V0.0152344C52 0.00682066 51.9932 0 51.9848 0Z" fill="#808080"/>
<path d="M44.3828 15.4375C43.1641 16.0469 41.7422 16.4531 40.3203 16.6562C41.8438 15.7422 42.9609 14.3203 43.5703 12.5937C42.1484 13.4062 40.625 14.0156 39 14.3203C37.8948 13.1883 36.4522 12.4453 34.8889 12.2028C33.3255 11.9602 31.7257 12.2313 30.3294 12.9752C28.9331 13.7191 27.8158 14.8957 27.1451 16.3286C26.4743 17.7614 26.2864 19.3731 26.6094 20.9219C20.9219 20.6172 15.4375 17.9766 11.8828 13.4062C11.3991 14.1788 11.0732 15.0394 10.9237 15.9386C10.7742 16.8377 10.8042 17.7575 11.0119 18.645C11.2196 19.5325 11.6009 20.3701 12.1339 21.1095C12.6668 21.8489 13.3409 22.4755 14.1172 22.9531C13 22.9531 11.8828 22.75 10.8672 22.2422C10.9688 25.5937 13.3047 28.5391 16.5547 29.25C15.5391 29.5547 14.4219 29.5547 13.3047 29.3516C14.3203 32.2969 17.0625 34.3281 20.1094 34.4297C17.1641 36.8672 13.2031 37.9844 9.44531 37.375C12.5855 39.4704 16.2499 40.6445 20.0232 40.7641C23.7964 40.8837 27.5278 39.9441 30.7944 38.0518C34.0611 36.1595 36.7324 33.39 38.5058 30.0573C40.2791 26.7246 41.0836 22.9618 40.8281 19.1953C42.25 18.1797 43.4688 16.9609 44.3828 15.4375Z" fill="#CECFF5"/>
</svg>
